<svg width="32" height="32" viewBox="0 0 32 32" fill="none" xmlns="http://www.w3.org/2000/svg">
<path d="M28.4433 14.7176C28.4433 7.69416 22.746 2 15.7247 2C8.69735 2 3 7.69416 3 14.7176C3 14.8972 3.00599 15.0708 3.01198 15.2445C3 15.8073 3.05991 17.0647 3.64702 18.7232C4.18021 20.3339 5.02493 21.8008 6.11527 23.0522C7.85263 25.2137 10.5425 27.5429 14.7182 29.6805C15.3472 30.0038 16.0961 30.0038 16.7251 29.6805C20.9008 27.5369 23.5967 25.2137 25.3281 23.0522C26.4184 21.8008 27.2631 20.3339 27.7963 18.7232C28.3834 17.0707 28.4433 15.8073 28.4314 15.2445C28.4373 15.0648 28.4433 14.8912 28.4433 14.7176ZM10.5665 8.99945C10.9799 8.58631 11.6449 8.60427 12.0403 9.02939L14.7242 11.9393L13.5619 13.2027L10.6025 10.4724C10.1711 10.0832 10.1591 9.41259 10.5665 8.99945ZM22.9437 19.4896C22.8778 19.5555 22.77 19.5555 22.6981 19.4896L20.1939 16.6575C20.0201 16.4839 19.7445 16.4839 19.5708 16.6575C19.3971 16.8312 19.3971 17.1066 19.5708 17.2802L22.099 20.0884C22.2188 20.2081 22.2188 20.4117 22.099 20.5315C21.9792 20.6512 21.7755 20.6512 21.6556 20.5315L18.8459 18.0047C18.6722 17.8311 18.3966 17.8311 18.2229 18.0047C18.0491 18.1784 18.0491 18.4538 18.2229 18.6274L21.0566 21.1302C21.1225 21.1961 21.1225 21.3039 21.0566 21.3757C21.0086 21.4236 20.9367 21.4356 20.8708 21.4176C20.8708 21.4176 18.9118 20.6872 17.9173 19.6932C17.3062 19.0825 17.0007 18.346 16.9887 17.6575L16.9827 17.6634C16.9768 16.9749 17.0726 16.5198 16.4795 15.9151L15.7306 15.2205L14.9398 15.951C14.3467 16.7054 14.4845 17.2144 14.4845 17.8311L14.4785 17.8251C14.4666 18.5556 14.1431 19.334 13.496 19.9806C12.2859 21.1901 10.0453 21.8487 9.07478 20.8728C8.09826 19.8968 8.75726 17.6575 9.96742 16.448C10.6144 15.8013 11.3933 15.478 12.1241 15.466L12.1182 15.46C12.7352 15.454 13.2264 15.5798 13.9513 14.975L19.433 9.03537C19.8284 8.61026 20.4934 8.5923 20.9068 9.00544C21.3202 9.41858 21.3022 10.0832 20.8768 10.4784L16.821 14.2206L17.48 14.9331C18.0791 15.5139 18.5344 15.4241 19.2233 15.4301L19.2173 15.4361C19.9123 15.448 20.6432 15.7534 21.2543 16.3641C22.2487 17.3581 22.9736 19.31 22.9736 19.31C23.0036 19.3639 22.9916 19.4358 22.9437 19.4896Z" fill="white"/>
</svg>
