<svg width="800" height="800" viewBox="0 0 800 800" fill="none" xmlns="http://www.w3.org/2000/svg">
<g clip-path="url(#clip0_125_465)">
<path d="M769.031 280.3C751.675 247.699 725.754 220.452 694.059 201.491C662.364 182.531 626.098 172.576 589.165 172.7H19.4649C15.6058 172.732 11.8418 173.901 8.64333 176.061C5.44486 178.22 2.95374 181.274 1.4813 184.842C0.00885895 188.409 -0.379597 192.331 0.364476 196.118C1.10855 199.905 2.95215 203.388 5.66488 206.133L129.798 331C135.226 336.453 141.677 340.779 148.782 343.731C155.887 346.683 163.505 348.201 171.198 348.2H572.831C586.57 348.063 599.8 353.389 609.611 363.007C619.422 372.624 625.011 385.745 625.148 399.483C625.285 413.222 619.959 426.451 610.342 436.263C600.724 446.074 587.603 451.663 573.865 451.8H296.998C293.136 451.826 289.368 452.99 286.164 455.147C282.961 457.304 280.464 460.358 278.988 463.927C277.511 467.495 277.12 471.42 277.863 475.21C278.606 479 280.45 482.486 283.165 485.233L407.332 610.133C412.757 615.589 419.208 619.917 426.313 622.869C433.418 625.821 441.038 627.338 448.732 627.333H573.965C736.865 627.333 860.098 453.167 769.031 280.233" fill="white"/>
</g>
<defs>
<clipPath id="clip0_125_465">
<rect width="800" height="800" fill="white"/>
</clipPath>
</defs>
</svg>
