<svg width="25" height="25" viewBox="0 0 25 25" fill="none" xmlns="http://www.w3.org/2000/svg">
<path d="M14.2559 2.47931H6.25586C5.72543 2.47931 5.21672 2.69002 4.84165 3.0651C4.46657 3.44017 4.25586 3.94888 4.25586 4.47931V20.4793C4.25586 21.0097 4.46657 21.5184 4.84165 21.8935C5.21672 22.2686 5.72543 22.4793 6.25586 22.4793H18.2559C18.7863 22.4793 19.295 22.2686 19.6701 21.8935C20.0451 21.5184 20.2559 21.0097 20.2559 20.4793V8.47931L14.2559 2.47931Z" stroke="#5A3300" stroke-width="2" stroke-linecap="round" stroke-linejoin="round"/>
<path d="M14.2559 2.47931V8.47931H20.2559" stroke="#5A3300" stroke-width="2" stroke-linecap="round" stroke-linejoin="round"/>
<path d="M16.2559 13.4793H8.25586" stroke="#5A3300" stroke-width="2" stroke-linecap="round" stroke-linejoin="round"/>
<path d="M16.2559 17.4793H8.25586" stroke="#5A3300" stroke-width="2" stroke-linecap="round" stroke-linejoin="round"/>
<path d="M10.2559 9.47931H9.25586H8.25586" stroke="#5A3300" stroke-width="2" stroke-linecap="round" stroke-linejoin="round"/>
</svg>
