<svg width="31" height="31" viewBox="0 0 31 31" fill="none" xmlns="http://www.w3.org/2000/svg">
<path d="M29.9991 22.7121V27.0777C30.0008 27.483 29.9176 27.8842 29.7549 28.2555C29.5922 28.6269 29.3536 28.9602 29.0544 29.2342C28.7551 29.5082 28.4018 29.7168 28.0172 29.8466C27.6325 29.9764 27.2249 30.0247 26.8204 29.9882C22.3336 29.5016 18.0236 27.9715 14.2369 25.5207C10.7139 23.2864 7.72693 20.3054 5.48824 16.7893C3.024 12.9929 1.49045 8.67061 1.01184 4.17253C0.975398 3.77011 1.02332 3.36453 1.15254 2.98161C1.28177 2.59869 1.48947 2.24682 1.76242 1.9484C2.03537 1.64998 2.36759 1.41155 2.73793 1.24829C3.10828 1.08503 3.50862 1.00052 3.91348 1.00014H8.28781C8.99545 0.99319 9.68147 1.24328 10.218 1.70379C10.7545 2.1643 11.105 2.80381 11.204 3.50312C11.3887 4.90024 11.7311 6.27202 12.2247 7.5923C12.4209 8.11316 12.4634 8.67923 12.3471 9.22343C12.2308 9.76764 11.9606 10.2672 11.5686 10.6628L9.71676 12.511C11.7925 16.1542 14.815 19.1707 18.4654 21.2423L20.3172 19.3942C20.7137 19.0029 21.2142 18.7333 21.7595 18.6172C22.3048 18.5011 22.872 18.5435 23.3939 18.7393C24.7168 19.232 26.0913 19.5737 27.4912 19.758C28.1995 19.8577 28.8463 20.2138 29.3087 20.7584C29.7711 21.3031 30.0168 21.9984 29.9991 22.7121Z" stroke="#3D2A00" stroke-width="2" stroke-linecap="round" stroke-linejoin="round"/>
</svg>
